<svg width="18" height="18" viewBox="0 0 18 18" fill="none" xmlns="http://www.w3.org/2000/svg">
<path fill-rule="evenodd" clip-rule="evenodd" d="M1.84909 9.00002C1.84909 5.05069 5.05066 1.84912 8.99999 1.84912C12.9493 1.84912 16.1509 5.05069 16.1509 9.00002C16.1509 12.9494 12.9493 16.1509 8.99999 16.1509C5.05066 16.1509 1.84909 12.9494 1.84909 9.00002ZM8.99999 0.666687C4.39762 0.666687 0.666656 4.39765 0.666656 9.00002C0.666656 13.6024 4.39762 17.3334 8.99999 17.3334C13.6024 17.3334 17.3333 13.6024 17.3333 9.00002C17.3333 4.39765 13.6024 0.666687 8.99999 0.666687ZM9.59119 4.77705C9.59119 4.45053 9.3265 4.18583 8.99998 4.18583C8.67346 4.18583 8.40876 4.45053 8.40876 4.77705V9.00002C8.40876 9.32654 8.67346 9.59124 8.99998 9.59124H13.223C13.5495 9.59124 13.8142 9.32654 13.8142 9.00002C13.8142 8.6735 13.5495 8.4088 13.223 8.4088H9.59119V4.77705Z" fill="#D9E1EE"/>
</svg>
