<svg width="60" height="60" viewBox="0 0 60 60" fill="none" xmlns="http://www.w3.org/2000/svg">
<g opacity="0.4">
<mask id="mask0" mask-type="alpha" maskUnits="userSpaceOnUse" x="0" y="0" width="60" height="60">
<rect width="59.8646" height="60" rx="29.9323" fill="#C4C4C4"/>
</mask>
<g mask="url(#mask0)">
<path d="M-335.242 2L410.072 -446" stroke="#BDBBDD"/>
<path d="M-335.242 6L410.072 -442" stroke="#BDBBDD"/>
<path d="M-335.242 10L410.072 -438" stroke="#BDBBDD"/>
<path d="M-335.242 14L410.072 -434" stroke="#BDBBDD"/>
<path d="M-335.242 18L410.072 -430" stroke="#BDBBDD"/>
<path d="M-335.242 22L410.072 -426" stroke="#BDBBDD"/>
<path d="M-335.242 26L410.072 -422" stroke="#BDBBDD"/>
<path d="M-335.242 30L410.072 -418" stroke="#BDBBDD"/>
<path d="M-335.242 34L410.072 -414" stroke="#BDBBDD"/>
<path d="M-335.242 38L410.072 -410" stroke="#BDBBDD"/>
<path d="M-335.242 42L410.072 -406" stroke="#BDBBDD"/>
<path d="M-335.242 46L410.072 -402" stroke="#BDBBDD"/>
<path d="M-335.242 50L410.072 -398" stroke="#BDBBDD"/>
<path d="M-335.242 54L410.072 -394" stroke="#BDBBDD"/>
<path d="M-335.242 58L410.072 -390" stroke="#BDBBDD"/>
<path d="M-335.242 62L410.072 -386" stroke="#BDBBDD"/>
<path d="M-335.242 66L410.072 -382" stroke="#BDBBDD"/>
<path d="M-335.242 70L410.072 -378" stroke="#BDBBDD"/>
<path d="M-335.242 74L410.072 -374" stroke="#BDBBDD"/>
<path d="M-335.242 78L410.072 -370" stroke="#BDBBDD"/>
<path d="M-335.242 82L410.072 -366" stroke="#BDBBDD"/>
<path d="M-335.242 86L410.072 -362" stroke="#BDBBDD"/>
<path d="M-335.242 90L410.072 -358" stroke="#BDBBDD"/>
<path d="M-335.242 94L410.072 -354" stroke="#BDBBDD"/>
<path d="M-335.242 98L410.072 -350" stroke="#BDBBDD"/>
<path d="M-335.242 102L410.072 -346" stroke="#BDBBDD"/>
<path d="M-335.242 106L410.072 -342" stroke="#BDBBDD"/>
<path d="M-335.242 110L410.072 -338" stroke="#BDBBDD"/>
<path d="M-335.242 114L410.072 -334" stroke="#BDBBDD"/>
<path d="M-335.242 118L410.072 -330" stroke="#BDBBDD"/>
<path d="M-335.242 122L410.072 -326" stroke="#BDBBDD"/>
<path d="M-335.242 126L410.072 -322" stroke="#BDBBDD"/>
<path d="M-335.242 130L410.072 -318" stroke="#BDBBDD"/>
<path d="M-335.242 134L410.072 -314" stroke="#BDBBDD"/>
<path d="M-335.242 138L410.072 -310" stroke="#BDBBDD"/>
<path d="M-335.242 142L410.072 -306" stroke="#BDBBDD"/>
<path d="M-335.242 146L410.072 -302" stroke="#BDBBDD"/>
<path d="M-335.242 150L410.072 -298" stroke="#BDBBDD"/>
<path d="M-335.242 154L410.072 -294" stroke="#BDBBDD"/>
<path d="M-335.242 158L410.072 -290" stroke="#BDBBDD"/>
<path d="M-335.242 162L410.072 -286" stroke="#BDBBDD"/>
<path d="M-335.242 166L410.072 -282" stroke="#BDBBDD"/>
<path d="M-335.242 170L410.072 -278" stroke="#BDBBDD"/>
<path d="M-335.242 174L410.072 -274" stroke="#BDBBDD"/>
<path d="M-335.242 178L410.072 -270" stroke="#BDBBDD"/>
<path d="M-335.242 182L410.072 -266" stroke="#BDBBDD"/>
<path d="M-335.242 186L410.072 -262" stroke="#BDBBDD"/>
<path d="M-335.242 190L410.072 -258" stroke="#BDBBDD"/>
<path d="M-335.242 194L410.072 -254" stroke="#BDBBDD"/>
<path d="M-335.242 198L410.072 -250" stroke="#BDBBDD"/>
<path d="M-335.242 202L410.072 -246" stroke="#BDBBDD"/>
<path d="M-335.242 206L410.072 -242" stroke="#BDBBDD"/>
<path d="M-335.242 210L410.072 -238" stroke="#BDBBDD"/>
<path d="M-335.242 214L410.072 -234" stroke="#BDBBDD"/>
<path d="M-335.242 218L410.072 -230" stroke="#BDBBDD"/>
<path d="M-335.242 222L410.072 -226" stroke="#BDBBDD"/>
<path d="M-335.242 226L410.072 -222" stroke="#BDBBDD"/>
<path d="M-335.242 230L410.072 -218" stroke="#BDBBDD"/>
<path d="M-335.242 234L410.072 -214" stroke="#BDBBDD"/>
<path d="M-335.242 238L410.072 -210" stroke="#BDBBDD"/>
<path d="M-335.242 242L410.072 -206" stroke="#BDBBDD"/>
<path d="M-335.242 246L410.072 -202" stroke="#BDBBDD"/>
<path d="M-335.242 250L410.072 -198" stroke="#BDBBDD"/>
<path d="M-335.242 254L410.072 -194" stroke="#BDBBDD"/>
<path d="M-335.242 258L410.072 -190" stroke="#BDBBDD"/>
<path d="M-335.242 262L410.072 -186" stroke="#BDBBDD"/>
<path d="M-335.242 266L410.072 -182" stroke="#BDBBDD"/>
<path d="M-335.242 270L410.072 -178" stroke="#BDBBDD"/>
<path d="M-335.242 274L410.072 -174" stroke="#BDBBDD"/>
<path d="M-335.242 278L410.072 -170" stroke="#BDBBDD"/>
<path d="M-335.242 282L410.072 -166" stroke="#BDBBDD"/>
<path d="M-335.242 286L410.072 -162" stroke="#BDBBDD"/>
<path d="M-335.242 290L410.072 -158" stroke="#BDBBDD"/>
<path d="M-335.242 294L410.072 -154" stroke="#BDBBDD"/>
<path d="M-335.242 298L410.072 -150" stroke="#BDBBDD"/>
<path d="M-335.242 302L410.072 -146" stroke="#BDBBDD"/>
<path d="M-335.242 306L410.072 -142" stroke="#BDBBDD"/>
<path d="M-335.242 310L410.072 -138" stroke="#BDBBDD"/>
<path d="M-335.242 314L410.072 -134" stroke="#BDBBDD"/>
<path d="M-335.242 318L410.072 -130" stroke="#BDBBDD"/>
<path d="M-335.242 322L410.072 -126" stroke="#BDBBDD"/>
<path d="M-335.242 326L410.072 -122" stroke="#BDBBDD"/>
<path d="M-335.242 330L410.072 -118" stroke="#BDBBDD"/>
<path d="M-335.242 334L410.072 -114" stroke="#BDBBDD"/>
<path d="M-335.242 338L410.072 -110" stroke="#BDBBDD"/>
<path d="M-335.242 342L410.072 -106" stroke="#BDBBDD"/>
<path d="M-335.242 346L410.072 -102" stroke="#BDBBDD"/>
<path d="M-335.242 350L410.072 -98" stroke="#BDBBDD"/>
<path d="M-335.242 354L410.072 -94" stroke="#BDBBDD"/>
<path d="M-335.242 358L410.072 -90" stroke="#BDBBDD"/>
<path d="M-335.242 362L410.072 -86" stroke="#BDBBDD"/>
<path d="M-335.242 366L410.072 -82" stroke="#BDBBDD"/>
<path d="M-335.242 370L410.072 -78" stroke="#BDBBDD"/>
<path d="M-335.242 374L410.072 -74" stroke="#BDBBDD"/>
<path d="M-335.242 378L410.072 -70" stroke="#BDBBDD"/>
<path d="M-335.242 382L410.072 -66" stroke="#BDBBDD"/>
<path d="M-335.242 386L410.072 -62" stroke="#BDBBDD"/>
<path d="M-335.242 390L410.072 -58" stroke="#BDBBDD"/>
<path d="M-335.242 394L410.072 -54" stroke="#BDBBDD"/>
<path d="M-335.242 398L410.072 -50" stroke="#BDBBDD"/>
<path d="M-335.242 402L410.072 -46" stroke="#BDBBDD"/>
<path d="M-335.242 406L410.072 -42" stroke="#BDBBDD"/>
<path d="M-335.242 410L410.072 -38" stroke="#BDBBDD"/>
<path d="M-335.242 414L410.072 -34" stroke="#BDBBDD"/>
<path d="M-335.242 418L410.072 -30" stroke="#BDBBDD"/>
<path d="M-335.242 422L410.072 -26" stroke="#BDBBDD"/>
<path d="M-335.242 426L410.072 -22" stroke="#BDBBDD"/>
<path d="M-335.242 430L410.072 -18" stroke="#BDBBDD"/>
<path d="M-335.242 434L410.072 -14" stroke="#BDBBDD"/>
<path d="M-335.242 438L410.072 -10" stroke="#BDBBDD"/>
<path d="M-335.242 442L410.072 -6" stroke="#BDBBDD"/>
<path d="M-335.242 446L410.072 -2" stroke="#BDBBDD"/>
<path d="M-335.242 450L410.072 2" stroke="#BDBBDD"/>
<path d="M-335.242 454L410.072 6" stroke="#BDBBDD"/>
<path d="M-335.242 458L410.072 10" stroke="#BDBBDD"/>
<path d="M-335.242 462L410.072 14" stroke="#BDBBDD"/>
<path d="M-335.242 466L410.072 18" stroke="#BDBBDD"/>
<path d="M-335.242 470L410.072 22" stroke="#BDBBDD"/>
<path d="M-335.242 474L410.072 26" stroke="#BDBBDD"/>
<path d="M-335.242 478L410.072 30" stroke="#BDBBDD"/>
<path d="M-335.242 482L410.072 34" stroke="#BDBBDD"/>
<path d="M-335.242 486L410.072 38" stroke="#BDBBDD"/>
<path d="M-335.242 490L410.072 42" stroke="#BDBBDD"/>
<path d="M-335.242 494L410.072 46" stroke="#BDBBDD"/>
<path d="M-335.242 498L410.072 50" stroke="#BDBBDD"/>
<path d="M-335.242 502L410.072 54" stroke="#BDBBDD"/>
<path d="M-335.242 506L410.072 58" stroke="#BDBBDD"/>
</g>
</g>
</svg>
