<svg width="70" height="22" viewBox="0 0 70 22" fill="none" xmlns="http://www.w3.org/2000/svg">
<path fill-rule="evenodd" clip-rule="evenodd" d="M64.3985 18.1327H66.4034L69.8722 9.03661H67.8877L66.4539 13.5669L64.9433 9.03661H62.7283L65.3658 15.6069L64.3985 18.1327ZM54.4474 11.1959V15.8585H52.4247V9.03661H53.8459L54.2684 9.63254C54.8188 9.15587 55.4076 8.8775 56.0862 8.8775C56.9953 8.8775 57.6864 9.15587 58.1089 9.84492C58.7234 9.26172 59.3763 8.8775 60.2087 8.8775C61.7704 8.8775 62.6794 9.71227 62.6794 11.9774V15.8585H60.6567V12.2159C60.6567 11.1694 60.2469 10.8646 59.5939 10.8646C59.2099 10.8646 58.8901 10.9705 58.5314 11.209C58.5573 11.4475 58.5699 11.699 58.5699 11.9774V15.8585H56.5472V12.2159C56.5472 11.1694 56.1374 10.8646 55.4718 10.8646C55.1004 10.8646 54.7932 10.9574 54.4474 11.1959ZM47.3929 11.7788H49.9919C49.851 10.8914 49.39 10.4673 48.6989 10.4673C48.1097 10.4673 47.5467 10.8251 47.3929 11.7788ZM48.8397 15.9911C46.8937 15.9911 45.3317 14.9976 45.3317 12.3747C45.3317 9.92398 46.8425 8.86443 48.5836 8.86443C50.683 8.86443 51.6177 10.3876 51.6177 12.7854H47.38C47.5211 13.9642 48.2252 14.3089 49.1599 14.3089C50.0637 14.3089 50.7708 14.0781 51.3179 13.6972L51.0434 15.3574C50.5212 15.7747 49.8944 15.9911 48.8397 15.9911ZM41.3079 14.2295C41.7686 14.2295 42.1144 14.1498 42.4728 13.8717V10.9045C42.1529 10.7055 41.833 10.613 41.372 10.613C40.3863 10.613 39.823 11.3018 39.823 12.4541C39.823 13.5803 40.3992 14.2295 41.3079 14.2295ZM42.8697 15.3553C42.3449 15.766 41.7434 16.0176 40.8855 16.0176C39.0803 16.0176 37.7747 14.8653 37.7747 12.4939C37.7747 10.136 39.2726 8.86443 41.1927 8.86443C41.6407 8.86443 42.0762 8.93076 42.4728 9.08954V6.19397H44.4958V15.8585H43.2154L42.8697 15.3553ZM29.2041 11.8183V6.76243H31.3035V11.7788C31.3035 13.5803 32.0844 13.9511 33.1598 13.9511C34.3249 13.9511 34.9264 13.4212 34.9264 11.7788V6.76243H37.0388V11.8183C37.0388 14.7989 35.7844 16.0441 33.0575 16.0441C30.5227 16.0441 29.2041 14.9711 29.2041 11.8183Z" fill="#645A53"/>
<path fill-rule="evenodd" clip-rule="evenodd" d="M23.8535 12.1978C23.7683 12.1271 23.6725 12.0795 23.5683 12.0591C22.9525 12.6942 22.2011 13.3632 21.5339 13.8127C21.226 14.0244 20.8388 14.1303 20.5824 14.1303C19.9923 14.1303 19.7359 13.5481 19.6588 12.6225C19.5562 11.3794 19.4869 9.89044 19.4869 7.58913C19.4869 5.22886 18.9692 3.6243 17.5901 3.49835C17.5319 3.49299 17.4729 3.48931 17.4114 3.48931C16.5649 3.48931 16.1544 3.93885 15.6157 5.07644C15.154 6.05492 14.4356 7.48328 13.1018 10.1812C11.9474 12.509 10.6647 14.5721 9.56145 16.0005C9.25423 16.3964 9.01142 16.6684 8.78319 16.8232C8.63071 16.927 8.48438 16.979 8.33028 16.979C7.89485 16.979 7.57695 16.5988 7.47076 15.7134C7.44551 15.503 7.43224 15.2642 7.43224 14.9952C7.43224 13.1702 8.09946 10.2077 9.25358 5.84321C10.1002 2.66927 9.74113 0.50061 7.89388 0.50061C7.89097 0.50061 7.88806 0.50061 7.88514 0.50061C7.88126 0.50061 7.87737 0.50061 7.87316 0.50061L7.87187 0.500945C7.4536 0.50597 7.10688 0.662741 6.77278 0.934745C6.44387 1.20273 6.11463 1.78158 5.8074 2.55973C5.461 3.43638 3.35477 7.80787 0.00247465 10.0599C-0.0370212 10.9162 0.431426 11.772 1.38062 11.8648C2.24468 11.9496 2.85816 11.5727 3.64808 11.0237C3.58883 11.2967 3.53412 11.5519 3.48426 11.7854C3.42534 12.0611 3.37517 12.299 3.33502 12.4909C3.27481 12.7766 3.23661 12.9605 3.22527 13.0115C3.11553 13.5324 3.03718 14.0271 2.98636 14.4968C2.5137 18.8686 4.47199 21.0259 6.76534 21.0259C7.14864 21.0259 7.52838 20.9786 7.90554 20.8795C10.4323 20.2165 12.8649 17.2175 15.7442 10.3135C15.7005 11.0646 15.6959 11.766 15.7273 12.4169C15.9171 16.3737 17.4296 17.5608 19.5665 17.5608C21.1826 17.5608 22.6961 16.6882 23.4656 15.6035C24.0302 14.8364 24.261 13.9899 24.261 13.3287C24.261 12.8155 24.1037 12.4058 23.8535 12.1978Z" fill="#EA5252"/>
</svg>
